<svg version="1.1" id="Layer_1" xmlns="http://www.w3.org/2000/svg" x="0" y="0" width="164" height="109" xml:space="preserve"><style>.st0{fill:#bf1920}</style><path id="C" class="st0" d="M42 64.5c-5.5 0-10-4.5-10-10s4.5-10 10-10c1.9 0 3.8.6 5.3 1.5L42 54.5l10-5.8c-1.1-1.7-2.6-3.2-4.5-4.3-2.4-1.4-5.7-2.3-9.4-2.3-5.2 0-9.9 1.9-12.4 4.8-1.9 2.1-3 4.8-3 7.7 0 2.9 1.1 5.6 3 7.7 2.6 2.9 7.1 4.8 12.3 4.8 5.2 0 9.7-1.9 12.3-4.8.1-.2.3-.3.4-.5l-.4-1.5c-1.9 2.5-4.9 4.2-8.3 4.2"/><path id="a" class="st0" d="M75.1 66.3l-4.2-15.6c-.7-2.5-3-4.4-5.7-4.4-.7 0-1.4.1-2 .4l-9 3.3h9.3l1.6 5.9c-1.5-1.3-3.5-2.1-5.7-2.1-4.4 0-7.9 2.9-7.9 6.5s3.5 6.5 7.9 6.5c3.1 0 5.9-1.5 7.6-3.9l.9 3.4h7.2m-12.8-2.4c-2 0-3.6-1.6-3.6-3.6s1.6-3.6 3.6-3.6 3.6 1.6 3.6 3.6-1.6 3.6-3.6 3.6z"/><path id="n1" class="st0" d="M92.2 46.3c-.5 0-1.1.1-1.5.3l-5.8 2.7c-.3-1.7-1.8-3-3.6-3-.5 0-1.1.1-1.5.3L72.6 50h5v16.4h7.3V51.8c0-1 .8-1.8 1.8-1.8s1.8.8 1.8 1.8v14.5h7.3V50c0-2.1-1.6-3.7-3.6-3.7"/><path id="o" class="st0" d="M119.4 56.6c0 5.7-4.6 10.3-10.3 10.3-5.7 0-10.3-4.6-10.3-10.3 0-5.7 4.6-10.3 10.3-10.3 5.7 0 10.3 4.6 10.3 10.3m-9.8-7.2c-.3-1.2-1.6-1.9-2.8-1.6-1.2.3-1.9 1.6-1.6 2.8l3.5 13.2c.3 1.2 1.6 1.9 2.8 1.6 1.2-.3 1.9-1.6 1.6-2.8l-3.5-13.2z"/><path id="n2" class="st0" d="M137.8 46.3c-.6 0-1.1.1-1.5.3l-5.8 2.7c-.3-1.7-1.8-3-3.6-3-.5 0-1.1.1-1.5.3l-7.1 3.3h5v16.4h7.3V51.8c0-1 .8-1.8 1.8-1.8s1.8.8 1.8 1.8v14.5h7.3V50c-.1-2.1-1.7-3.7-3.7-3.7"/></svg>