<svg id="Layer_1" xmlns="http://www.w3.org/2000/svg" viewBox="0 0 164 109"><style>.st0{fill:#1f70c1}</style><path class="st0" d="M52.7 65.5h28.7c0 .6-.6 2.2-.9 2.6H52.7v-2.6M52.7 40.7h27.9c.2.4.8 2.1.8 2.6H52.7v-2.6M57.9 55.6h19.9c.6.5 1.9 1.9 2.3 2.6H57.9v-2.6M73.4 63.2h8.3c0-.7-.2-2.1-.5-2.6h-7.8v2.6M57.9 53.3h19.9c.6-.5 1.8-1.9 2.3-2.6H57.9v2.6M73.4 45.7h8.3c0 .6-.2 2.1-.4 2.6h-7.8v-2.6M52.7 70.5h25.9c-2.3 1.9-4.3 2.6-7.9 2.6h-18v-2.6M52.7 38.4h25.9c-2.3-1.9-4.3-2.6-7.9-2.6h-18v2.6M32 35.8h18.1v2.6H32zM32 40.7h18.1v2.6H32zM32 65.5h18.1v2.6H32zM37.2 60.6H45v2.6h-7.8zM37.2 55.6H45v2.6h-7.8zM37.2 50.7H45v2.6h-7.8zM37.2 45.7H45v2.6h-7.8zM57.9 60.6h7.8v2.6h-7.8zM57.9 45.7h7.8v2.6h-7.8zM100.8 63.2h7.2l.9-2.6h-9zM99.1 58.2h10.6l.9-2.6H98.2zM32 70.5h18.1v2.6H32zM104.3 73.1h.2l1-2.6h-2.1zM88.9 60.6h7.8v2.6h-7.8zM88.9 55.6h7.8v2.6h-7.8zM83.7 70.5h12.9v2.6H83.7zM83.7 65.5h12.9v2.6H83.7zM102.5 68.2h3.8l.9-2.7h-5.6zM112.2 60.6h7.8v2.6h-7.8zM112.2 55.6h7.8v2.6h-7.8zM112.2 70.5h12.9v2.6h-12.9zM112.2 65.5h12.9v2.6h-12.9zM101.8 45.7H88.9v2.6h13.9zM105.2 50.7l-.8 2.3-.8-2.3H88.9v2.6h7.8v-2.1l.7 2.1h14l.8-2.1v2.1h7.7v-2.6zM98.3 35.8H83.7v2.6h15.5zM100.1 40.7H83.7v2.7H101zM107 45.7h12.9v2.6h-13.8zM110.5 35.8h14.6v2.6h-15.5zM108.7 40.7h16.4v2.7h-17.3zM129.9 71c.3 0 .8.1.8-.4 0-.4-.3-.4-.6-.4h-.7v.8h.5m1.1 1.3h-.3l-.7-1.1h-.5v1.1h-.3V70h1c.6 0 .8.2.8.6 0 .4-.3.6-.7.6l.7 1.1zm.7-1.1c0-1-.7-1.8-1.7-1.8s-1.7.8-1.7 1.8.7 1.8 1.7 1.8c1-.1 1.7-.8 1.7-1.8m-3.8 0c0-1.1.9-2 2-2s2 .9 2 2-.9 2.1-2 2.1c-1.1-.1-2-1-2-2.1"/></svg>